<svg id="svg" version="1.1" xmlns="http://www.w3.org/2000/svg" xmlns:xlink="http://www.w3.org/1999/xlink" width="400" height="318.7648456057007" viewBox="0, 0, 400,318.7648456057007"><g id="svgg"><path id="path0" d="M263.833 24.260 C 262.688 24.583,260.925 25.030,259.917 25.252 C 258.908 25.475,255.871 26.262,253.167 27.001 C 250.463 27.741,247.962 28.388,247.609 28.440 C 246.492 28.604,243.610 29.421,243.557 29.589 C 243.529 29.677,243.861 29.987,244.295 30.278 C 244.729 30.568,246.058 31.472,247.250 32.286 C 248.442 33.100,253.204 36.344,257.833 39.494 C 262.462 42.644,266.725 45.551,267.304 45.954 C 267.884 46.356,269.534 47.483,270.971 48.458 C 272.408 49.433,274.214 50.666,274.985 51.199 C 275.756 51.731,276.439 52.167,276.504 52.167 C 276.669 52.167,276.358 50.780,274.635 43.833 C 273.806 40.487,273.032 37.225,272.916 36.583 C 272.354 33.467,270.316 25.904,269.863 25.250 C 268.740 23.627,267.054 23.350,263.833 24.260 M238.167 30.927 C 237.754 31.058,236.704 31.312,235.833 31.491 C 234.963 31.670,232.975 32.164,231.417 32.588 C 229.858 33.012,227.758 33.580,226.750 33.849 C 225.742 34.119,224.692 34.409,224.417 34.494 C 224.142 34.579,223.617 34.692,223.250 34.745 C 222.532 34.850,219.605 35.614,213.736 37.228 C 212.537 37.558,211.299 37.862,210.986 37.902 C 209.688 38.071,204.821 39.478,204.469 39.786 C 204.315 39.921,203.752 40.062,203.219 40.099 C 202.686 40.136,201.577 40.360,200.754 40.597 C 199.931 40.834,198.956 41.063,198.587 41.107 C 198.218 41.150,197.429 41.327,196.833 41.500 C 193.598 42.437,187.740 43.964,185.917 44.346 C 185.367 44.461,184.842 44.597,184.750 44.648 C 184.658 44.699,184.436 44.763,184.257 44.791 C 183.571 44.898,180.742 45.710,180.568 45.850 C 180.468 45.931,180.353 45.964,180.312 45.923 C 180.216 45.827,177.984 46.399,177.590 46.620 C 177.389 46.732,177.352 46.825,177.479 46.903 C 177.616 46.988,177.667 50.414,177.667 59.506 L 177.667 71.993 178.404 73.705 C 179.296 75.773,181.910 82.155,182.996 84.917 C 183.429 86.017,184.925 89.692,186.321 93.083 C 187.718 96.475,189.351 100.450,189.951 101.917 C 190.551 103.383,191.814 106.458,192.757 108.750 C 193.700 111.042,195.071 114.379,195.803 116.167 C 196.536 117.954,197.254 119.692,197.398 120.029 C 197.563 120.413,197.597 120.662,197.489 120.698 C 197.323 120.753,198.807 121.248,209.167 124.589 C 215.429 126.608,223.408 129.191,225.667 129.931 C 227.935 130.674,227.674 130.708,231.382 129.186 C 233.143 128.463,236.758 126.991,239.417 125.916 C 242.075 124.840,245.675 123.377,247.417 122.665 C 250.498 121.404,252.665 120.522,262.167 116.662 C 264.688 115.637,268.175 114.215,269.917 113.500 C 271.658 112.786,275.258 111.323,277.917 110.249 C 284.071 107.764,289.230 105.644,289.319 105.563 C 289.475 105.422,287.427 96.568,287.067 95.828 C 286.954 95.595,286.815 95.108,286.757 94.744 C 286.495 93.089,285.060 87.003,280.921 70.000 C 280.040 66.379,279.321 63.304,279.324 63.167 C 279.327 63.029,278.998 61.604,278.593 60.000 C 277.720 56.535,278.468 57.340,272.124 53.047 C 269.580 51.325,262.645 46.617,256.712 42.583 C 241.321 32.119,239.163 30.665,239.033 30.678 C 238.969 30.684,238.579 30.796,238.167 30.927 M287.917 109.572 C 286.725 110.056,283.912 111.202,281.667 112.120 C 277.709 113.737,270.834 116.544,264.500 119.126 C 262.804 119.818,259.504 121.165,257.167 122.120 C 254.829 123.075,251.379 124.484,249.500 125.250 C 247.621 126.017,244.321 127.365,242.167 128.247 C 240.012 129.128,237.031 130.342,235.542 130.945 C 232.777 132.064,232.486 132.255,233.292 132.422 C 233.544 132.475,235.887 133.216,238.500 134.071 C 241.112 134.925,243.550 135.699,243.917 135.791 C 244.283 135.884,246.496 136.597,248.833 137.375 C 251.171 138.154,255.333 139.519,258.083 140.408 C 269.229 144.013,272.913 145.210,276.333 146.339 C 278.304 146.989,280.554 147.713,281.333 147.946 C 282.112 148.180,284.212 148.857,286.000 149.451 C 287.787 150.044,289.962 150.749,290.833 151.016 C 291.704 151.283,292.942 151.666,293.583 151.867 C 298.323 153.354,300.343 150.806,298.963 145.083 C 298.631 143.708,297.635 139.546,296.750 135.833 C 295.864 132.121,294.460 126.346,293.629 123.000 C 292.799 119.654,292.060 116.512,291.987 116.016 C 291.830 114.941,290.339 108.965,290.189 108.805 C 290.131 108.743,289.108 109.089,287.917 109.572 " stroke="none" fill="#21f1b8" fill-rule="evenodd"></path><path id="path1" d="M200.096 3.118 C 199.047 3.439,197.789 4.683,197.013 6.167 C 196.702 6.763,195.907 8.116,195.247 9.174 C 194.586 10.231,193.887 11.431,193.693 11.840 C 193.498 12.249,192.841 13.371,192.233 14.333 C 191.624 15.296,190.789 16.721,190.376 17.500 C 189.962 18.279,189.567 18.954,189.497 19.000 C 189.427 19.046,188.600 20.433,187.659 22.083 C 186.718 23.733,185.774 25.313,185.562 25.593 C 185.350 25.873,184.885 26.661,184.529 27.343 C 183.791 28.758,182.700 30.588,181.977 31.621 C 181.706 32.009,181.327 32.684,181.136 33.121 C 180.944 33.559,180.581 34.217,180.330 34.583 C 179.744 35.438,178.320 37.842,177.695 39.029 C 177.428 39.536,176.875 40.468,176.465 41.100 C 175.638 42.376,174.753 43.871,174.748 44.000 C 174.744 44.130,172.976 47.051,172.720 47.351 C 172.595 47.498,172.533 47.725,172.583 47.855 C 172.633 47.985,172.398 48.540,172.062 49.087 C 171.726 49.635,171.176 50.571,170.839 51.167 C 169.876 52.873,166.677 58.314,165.989 59.417 C 165.646 59.967,164.846 61.317,164.211 62.417 C 163.577 63.517,162.717 64.979,162.301 65.667 C 161.885 66.354,160.736 68.304,159.747 70.000 C 158.758 71.696,157.369 74.058,156.660 75.250 C 155.952 76.442,154.603 78.729,153.663 80.333 C 152.723 81.938,151.225 84.487,150.334 86.000 C 149.443 87.513,148.052 89.875,147.244 91.250 C 145.825 93.663,144.612 95.720,141.051 101.750 C 139.478 104.414,138.541 106.006,134.329 113.167 C 133.386 114.771,132.036 117.058,131.330 118.250 C 130.623 119.442,129.285 121.710,128.356 123.292 C 124.258 130.266,123.225 132.017,122.285 133.583 C 121.734 134.500,120.986 135.775,120.621 136.417 C 120.257 137.058,119.267 138.746,118.421 140.167 C 117.576 141.587,116.647 143.173,116.357 143.690 C 116.067 144.208,115.641 144.755,115.410 144.906 C 115.179 145.057,114.775 145.625,114.512 146.168 C 114.023 147.178,113.347 148.351,113.167 148.500 C 113.112 148.546,112.704 149.221,112.260 150.000 C 111.125 151.991,109.608 154.544,108.744 155.917 C 108.340 156.558,108.007 157.210,108.005 157.365 C 108.002 157.520,107.929 157.691,107.842 157.745 C 107.755 157.799,107.295 158.497,106.820 159.296 C 106.345 160.096,105.760 161.044,105.520 161.402 C 105.280 161.761,104.858 162.491,104.583 163.024 C 104.308 163.558,103.690 164.634,103.210 165.416 C 102.729 166.199,102.062 167.344,101.726 167.961 C 101.390 168.578,100.687 169.758,100.162 170.583 C 99.638 171.408,98.986 172.496,98.713 173.000 C 97.847 174.599,96.504 176.811,96.335 176.916 C 95.559 177.395,95.332 180.611,95.970 182.055 C 97.482 185.472,100.507 186.212,105.011 184.267 C 106.151 183.775,107.458 183.246,107.917 183.092 C 108.375 182.938,110.325 182.151,112.250 181.343 C 114.175 180.534,116.575 179.551,117.583 179.159 C 118.592 178.766,119.867 178.240,120.417 177.990 C 121.804 177.358,123.527 176.667,123.713 176.667 C 123.861 176.667,128.435 174.744,130.297 173.899 C 130.781 173.680,131.278 173.500,131.401 173.500 C 131.622 173.500,133.850 172.583,136.677 171.329 C 137.461 170.980,138.549 170.549,139.093 170.369 C 140.004 170.068,141.520 169.464,142.750 168.910 C 144.875 167.953,146.513 167.282,147.043 167.152 C 147.388 167.067,148.420 166.661,149.336 166.249 C 150.252 165.837,151.037 165.500,151.080 165.500 C 151.253 165.500,153.422 164.457,153.500 164.337 C 153.593 164.193,155.763 163.270,159.213 161.906 C 160.476 161.406,162.688 160.501,164.129 159.893 C 165.571 159.285,167.313 158.580,168.000 158.325 C 168.688 158.070,170.675 157.267,172.417 156.540 C 174.158 155.814,176.258 154.949,177.083 154.618 C 177.908 154.288,180.533 153.220,182.917 152.244 C 185.300 151.268,188.787 149.850,190.667 149.092 C 192.546 148.334,194.994 147.328,196.108 146.857 C 197.221 146.386,198.308 145.999,198.524 145.998 C 198.740 145.997,199.300 145.818,199.769 145.600 C 200.237 145.382,200.870 145.148,201.175 145.081 C 201.480 145.014,202.259 144.719,202.906 144.425 C 203.554 144.131,204.346 143.790,204.667 143.667 C 204.987 143.543,205.799 143.193,206.471 142.888 C 207.142 142.583,208.141 142.186,208.691 142.005 C 209.526 141.731,212.834 140.375,215.583 139.179 C 215.950 139.020,216.550 138.792,216.917 138.673 C 217.283 138.554,218.937 137.877,220.593 137.167 C 222.248 136.457,223.785 135.823,224.009 135.757 C 224.562 135.594,227.591 134.378,228.417 133.986 C 229.606 133.423,231.901 132.500,232.113 132.500 C 232.227 132.500,232.464 132.346,232.640 132.157 C 232.924 131.852,235.848 130.614,244.083 127.312 C 245.458 126.760,247.821 125.796,249.333 125.168 C 250.846 124.541,253.133 123.603,254.417 123.085 C 257.797 121.719,263.771 119.287,268.750 117.249 C 271.133 116.274,274.021 115.100,275.167 114.642 C 276.313 114.183,278.300 113.369,279.583 112.833 C 280.867 112.297,282.442 111.653,283.083 111.401 C 283.725 111.149,285.563 110.399,287.167 109.735 C 288.771 109.071,290.106 108.591,290.135 108.668 C 290.189 108.815,290.718 108.622,292.470 107.817 C 293.049 107.551,293.619 107.333,293.737 107.333 C 293.946 107.333,296.602 106.254,298.250 105.499 C 298.708 105.289,300.021 104.762,301.167 104.328 C 302.313 103.894,304.412 103.034,305.833 102.418 C 307.254 101.802,308.829 101.162,309.333 100.997 C 309.837 100.832,311.150 100.307,312.250 99.832 C 313.350 99.356,314.925 98.701,315.750 98.376 C 319.252 96.997,319.835 96.761,321.500 96.046 C 325.711 94.239,325.778 94.204,326.318 93.549 C 328.205 91.261,327.654 86.184,325.428 85.338 C 325.226 85.261,324.578 84.830,323.989 84.380 C 323.399 83.930,321.792 82.813,320.417 81.898 C 319.042 80.982,317.579 79.987,317.167 79.687 C 316.754 79.386,315.993 78.865,315.475 78.528 C 313.313 77.124,308.374 73.749,307.837 73.309 C 307.518 73.047,307.195 72.833,307.120 72.833 C 306.959 72.833,305.025 71.542,304.691 71.212 C 304.413 70.937,302.743 69.804,302.146 69.484 C 301.905 69.355,301.155 68.854,300.479 68.371 C 298.487 66.946,297.833 66.502,297.786 66.544 C 297.740 66.584,296.557 65.756,295.083 64.652 C 294.625 64.308,293.791 63.740,293.230 63.389 C 292.668 63.037,291.406 62.188,290.424 61.500 C 289.443 60.813,288.516 60.175,288.366 60.083 C 287.721 59.690,285.690 58.283,285.000 57.752 C 284.587 57.434,283.950 57.030,283.583 56.854 C 283.217 56.678,282.729 56.367,282.500 56.164 C 281.818 55.558,276.771 52.251,276.500 52.232 C 276.275 52.217,274.904 51.306,267.750 46.418 C 266.558 45.604,264.796 44.404,263.833 43.751 C 261.916 42.450,258.831 40.349,254.333 37.279 C 252.729 36.184,249.625 34.079,247.435 32.602 C 245.245 31.125,243.417 29.787,243.374 29.628 C 243.299 29.351,241.830 28.333,241.506 28.333 C 241.420 28.333,241.290 28.233,241.217 28.110 C 241.109 27.930,238.870 26.327,237.689 25.583 C 236.599 24.897,235.315 24.016,234.367 23.305 C 233.753 22.843,233.069 22.396,232.848 22.310 C 232.627 22.224,231.990 21.811,231.431 21.391 C 230.873 20.971,229.554 20.061,228.500 19.369 C 227.446 18.676,225.983 17.663,225.250 17.117 C 224.517 16.570,223.676 16.021,223.381 15.895 C 223.087 15.770,222.599 15.454,222.298 15.192 C 221.997 14.931,220.475 13.869,218.917 12.832 C 217.358 11.795,215.781 10.700,215.411 10.399 C 215.042 10.099,214.554 9.782,214.328 9.695 C 214.102 9.608,213.310 9.085,212.570 8.534 C 211.829 7.982,210.441 7.026,209.486 6.408 C 208.531 5.790,207.189 4.870,206.504 4.363 C 204.523 2.898,202.259 2.458,200.096 3.118 M204.984 7.572 C 205.938 8.220,207.341 9.162,208.101 9.667 C 208.860 10.171,210.137 11.052,210.936 11.625 C 211.736 12.198,212.484 12.667,212.598 12.667 C 212.712 12.667,212.831 12.727,212.861 12.801 C 212.892 12.875,213.667 13.453,214.583 14.085 C 215.500 14.717,216.287 15.284,216.333 15.345 C 216.379 15.406,216.722 15.610,217.095 15.799 C 217.468 15.988,218.160 16.449,218.633 16.822 C 219.106 17.196,220.075 17.876,220.788 18.333 C 221.500 18.789,222.158 19.224,222.250 19.299 C 222.342 19.374,223.092 19.897,223.917 20.460 C 224.742 21.024,225.604 21.636,225.833 21.822 C 226.063 22.007,226.310 22.161,226.384 22.163 C 226.573 22.168,228.459 23.453,229.207 24.085 C 229.549 24.375,230.112 24.755,230.457 24.930 C 230.801 25.105,231.608 25.630,232.250 26.097 C 232.892 26.563,234.518 27.675,235.864 28.567 C 237.210 29.460,238.401 30.297,238.510 30.428 C 238.618 30.559,238.867 30.668,239.062 30.669 C 239.257 30.671,240.392 31.331,241.583 32.137 C 244.313 33.982,250.511 38.193,254.667 41.026 C 262.791 46.564,272.961 53.476,274.917 54.788 C 276.200 55.650,277.431 56.556,277.651 56.802 C 277.872 57.048,278.397 57.494,278.818 57.792 C 280.634 59.077,281.991 60.000,282.066 60.000 C 282.110 60.000,282.732 60.417,283.448 60.926 C 285.515 62.396,286.326 62.949,287.748 63.860 C 288.481 64.328,289.156 64.804,289.248 64.916 C 289.468 65.182,290.795 66.045,291.354 66.286 C 291.595 66.389,292.045 66.693,292.354 66.961 C 292.664 67.229,294.042 68.195,295.417 69.109 C 296.792 70.022,298.324 71.079,298.821 71.457 C 299.319 71.835,300.047 72.310,300.439 72.511 C 300.831 72.713,301.298 73.014,301.476 73.180 C 301.654 73.346,303.051 74.318,304.580 75.341 C 306.110 76.364,307.846 77.568,308.439 78.017 C 309.032 78.466,309.607 78.835,309.717 78.837 C 309.827 78.840,310.254 79.102,310.667 79.419 C 311.079 79.737,312.732 80.887,314.339 81.974 C 315.946 83.061,317.596 84.192,318.006 84.488 C 318.415 84.784,319.200 85.319,319.750 85.675 C 321.831 87.026,323.903 88.540,323.931 88.730 C 323.959 88.922,307.344 91.406,304.908 91.574 C 303.935 91.642,287.284 93.961,286.890 94.084 C 286.477 94.214,287.055 95.751,287.513 95.743 C 288.043 95.734,293.528 95.006,307.583 93.081 C 321.365 91.193,323.833 90.880,323.833 91.020 C 323.833 91.238,323.359 91.487,321.167 92.417 C 319.929 92.942,318.260 93.663,317.458 94.019 C 316.656 94.375,315.897 94.667,315.771 94.667 C 315.580 94.667,312.998 95.717,311.083 96.574 C 310.057 97.033,307.727 97.959,307.083 98.164 C 306.717 98.280,305.953 98.590,305.386 98.853 C 304.819 99.115,303.971 99.481,303.500 99.667 C 303.029 99.852,302.181 100.218,301.614 100.479 C 301.047 100.741,300.358 101.007,300.083 101.071 C 299.808 101.136,297.923 101.896,295.894 102.761 C 293.865 103.626,292.140 104.333,292.060 104.332 C 291.684 104.330,289.333 105.395,289.333 105.567 C 289.333 105.675,287.815 106.374,285.958 107.121 C 284.102 107.867,280.858 109.184,278.750 110.046 C 276.642 110.909,273.942 112.009,272.750 112.490 C 271.558 112.971,269.158 113.952,267.417 114.671 C 265.675 115.390,263.200 116.401,261.917 116.918 C 259.360 117.949,255.170 119.651,248.250 122.471 C 245.775 123.480,242.700 124.730,241.417 125.250 C 240.133 125.770,237.658 126.783,235.917 127.500 C 230.172 129.868,228.017 130.697,227.859 130.599 C 227.713 130.509,227.405 130.624,225.250 131.575 C 224.792 131.777,224.004 132.098,223.500 132.289 C 221.403 133.081,219.451 133.875,217.261 134.825 C 215.984 135.380,214.848 135.833,214.736 135.833 C 214.624 135.833,213.071 136.463,211.286 137.233 C 209.500 138.002,207.862 138.684,207.645 138.747 C 207.162 138.889,204.196 140.077,203.167 140.541 C 201.348 141.362,199.719 142.028,199.353 142.102 C 198.621 142.248,196.919 143.025,196.667 143.327 C 196.529 143.492,194.917 144.231,193.083 144.970 C 191.250 145.709,188.025 147.018,185.917 147.880 C 183.808 148.742,181.108 149.840,179.917 150.321 C 178.725 150.801,176.325 151.783,174.583 152.504 C 172.842 153.225,170.479 154.190,169.333 154.649 C 168.188 155.108,165.300 156.281,162.917 157.255 C 160.533 158.229,157.046 159.649,155.167 160.411 C 153.287 161.173,151.379 161.958,150.926 162.156 C 150.473 162.354,149.948 162.496,149.760 162.471 C 149.571 162.447,149.342 162.472,149.250 162.528 C 148.984 162.690,145.275 164.193,145.000 164.251 C 144.695 164.315,143.930 164.608,143.253 164.919 C 141.500 165.724,138.388 167.021,137.714 167.228 C 137.276 167.363,135.512 168.076,133.796 168.814 C 132.080 169.552,130.242 170.301,129.713 170.479 C 128.780 170.791,125.895 171.994,123.653 173.005 C 123.050 173.277,122.464 173.500,122.351 173.500 C 122.238 173.500,120.464 174.217,118.408 175.093 C 116.352 175.968,114.538 176.711,114.377 176.743 C 114.006 176.817,112.689 177.339,111.497 177.886 C 110.991 178.118,110.180 178.464,109.694 178.656 C 109.209 178.847,108.332 179.228,107.746 179.502 C 107.160 179.776,106.566 180.000,106.426 180.000 C 106.286 180.000,105.110 180.454,103.813 181.009 C 100.836 182.282,100.126 182.300,101.777 181.061 C 102.404 180.591,103.104 180.103,103.333 179.978 C 103.563 179.853,104.050 179.519,104.417 179.238 C 104.783 178.956,106.321 177.874,107.833 176.833 C 109.346 175.793,110.872 174.697,111.226 174.398 C 111.579 174.099,112.104 173.741,112.393 173.602 C 112.923 173.346,113.238 173.129,114.854 171.904 C 115.347 171.531,116.612 170.639,117.667 169.922 C 118.721 169.205,119.888 168.374,120.259 168.074 C 120.631 167.775,121.219 167.371,121.565 167.177 C 121.911 166.983,122.611 166.507,123.121 166.120 C 124.741 164.892,126.009 164.000,126.135 164.000 C 126.202 164.000,126.518 163.789,126.837 163.532 C 127.428 163.055,129.981 161.218,130.472 160.917 C 131.216 160.460,132.987 159.206,133.534 158.748 C 133.873 158.464,134.361 158.125,134.617 157.994 C 135.138 157.729,136.081 157.069,136.573 156.625 C 136.751 156.465,136.957 156.333,137.031 156.333 C 137.424 156.333,137.064 155.954,136.308 155.571 C 135.311 155.065,135.201 155.093,133.843 156.186 C 133.345 156.588,132.321 157.329,131.568 157.833 C 128.968 159.574,124.248 162.889,123.716 163.349 C 123.422 163.602,122.660 164.115,122.022 164.487 C 121.384 164.860,120.837 165.229,120.806 165.308 C 120.775 165.387,119.513 166.297,118.000 167.331 C 116.487 168.365,114.899 169.500,114.470 169.855 C 114.041 170.210,113.622 170.500,113.539 170.500 C 113.380 170.500,111.577 171.747,111.191 172.124 C 110.852 172.455,109.039 173.667,108.882 173.667 C 108.808 173.667,108.560 173.838,108.332 174.046 C 108.103 174.255,107.299 174.860,106.543 175.390 C 105.788 175.920,105.056 176.467,104.918 176.606 C 104.780 176.744,104.667 176.809,104.667 176.750 C 104.667 176.636,102.030 178.447,101.750 178.753 C 101.448 179.084,100.429 179.779,99.708 180.146 L 99.000 180.507 99.000 179.997 C 99.000 179.387,99.386 178.600,100.690 176.548 C 101.227 175.703,101.667 174.926,101.667 174.822 C 101.667 174.717,101.903 174.283,102.191 173.858 C 102.687 173.125,104.383 170.265,105.072 169.000 C 105.246 168.679,105.704 167.929,106.089 167.333 C 106.474 166.737,107.169 165.575,107.634 164.750 C 108.099 163.925,108.979 162.437,109.589 161.443 C 110.200 160.449,110.919 159.211,111.187 158.693 C 111.456 158.174,112.239 156.850,112.928 155.750 C 113.617 154.650,114.284 153.511,114.410 153.220 C 114.537 152.928,114.973 152.178,115.380 151.553 C 116.543 149.769,118.333 146.543,118.333 146.234 C 118.333 146.079,119.095 144.670,120.027 143.101 C 120.958 141.533,122.316 139.237,123.045 138.000 C 123.773 136.762,124.990 134.700,125.748 133.417 C 126.507 132.133,128.010 129.583,129.089 127.750 C 130.168 125.917,131.626 123.442,132.330 122.250 C 133.034 121.058,134.380 118.771,135.321 117.167 C 136.263 115.563,137.766 113.013,138.662 111.500 C 139.558 109.987,141.064 107.438,142.008 105.833 C 145.452 99.980,146.307 98.530,147.950 95.750 C 148.871 94.192,150.395 91.604,151.336 90.000 C 152.277 88.396,153.738 85.921,154.582 84.500 C 155.426 83.079,156.927 80.529,157.917 78.833 C 158.907 77.137,160.298 74.775,161.006 73.583 C 161.715 72.392,163.065 70.104,164.007 68.500 C 164.948 66.896,166.471 64.308,167.389 62.750 C 168.308 61.192,169.634 58.942,170.337 57.750 C 171.039 56.558,172.366 54.308,173.285 52.750 C 174.205 51.192,175.360 49.223,175.853 48.376 C 176.347 47.528,176.878 46.793,177.034 46.742 C 177.190 46.691,177.518 46.222,177.764 45.700 C 178.009 45.177,178.369 44.529,178.563 44.260 C 179.118 43.490,180.583 41.033,181.252 39.750 C 181.586 39.108,182.031 38.358,182.240 38.083 C 182.448 37.808,183.276 36.421,184.079 35.000 C 184.882 33.579,185.841 31.970,186.210 31.425 C 186.580 30.879,187.031 30.092,187.214 29.675 C 187.397 29.258,187.751 28.617,188.001 28.250 C 188.686 27.243,190.500 24.210,190.500 24.070 C 190.500 24.002,191.089 23.003,191.809 21.849 C 192.529 20.694,193.394 19.237,193.732 18.609 C 194.070 17.981,194.803 16.750,195.362 15.872 C 195.920 14.994,196.528 13.933,196.712 13.513 C 196.897 13.093,197.098 12.713,197.160 12.667 C 197.323 12.547,199.283 9.278,199.958 8.000 C 200.876 6.264,200.942 6.256,201.064 7.860 C 201.122 8.625,201.551 16.150,202.019 24.583 C 202.486 33.017,202.898 39.948,202.935 39.987 C 203.299 40.369,204.581 39.510,204.549 38.905 C 204.531 38.545,204.212 32.475,203.840 25.417 C 202.989 9.240,202.868 6.169,203.083 6.295 C 203.175 6.349,204.031 6.924,204.984 7.572 M187.976 118.121 C 187.760 118.265,187.508 118.465,187.417 118.566 C 187.157 118.853,186.173 119.548,185.167 120.156 C 184.662 120.461,184.213 120.761,184.167 120.822 C 184.121 120.884,183.727 121.186,183.292 121.495 C 182.355 122.159,182.357 122.149,183.013 123.102 L 183.525 123.846 183.858 123.423 C 184.041 123.190,184.265 123.000,184.355 123.000 C 184.568 123.000,186.215 121.879,187.148 121.099 C 187.550 120.763,188.376 120.198,188.982 119.844 C 190.451 118.986,190.832 118.580,190.299 118.438 C 190.089 118.383,189.569 118.230,189.143 118.099 C 188.457 117.887,188.325 117.890,187.976 118.121 M346.833 225.985 C 343.301 226.505,341.415 230.324,342.674 234.402 C 343.928 238.461,350.389 239.145,352.556 235.449 C 355.309 230.751,351.970 225.229,346.833 225.985 M78.177 229.507 C 75.709 229.640,73.895 229.812,69.500 230.329 C 68.721 230.421,67.746 230.594,67.333 230.713 L 66.583 230.931 66.541 263.799 L 66.499 296.667 71.083 296.667 L 75.667 296.667 75.667 283.750 L 75.667 270.833 81.993 270.833 L 88.320 270.833 89.267 272.125 C 89.788 272.835,90.603 273.904,91.078 274.500 C 91.553 275.096,92.138 275.921,92.378 276.333 C 92.618 276.746,93.009 277.304,93.246 277.574 C 93.484 277.844,94.479 279.307,95.457 280.824 C 96.435 282.342,97.520 283.990,97.868 284.486 C 98.216 284.982,98.500 285.481,98.500 285.594 C 98.500 285.707,98.770 286.201,99.100 286.692 C 99.430 287.182,100.005 288.108,100.377 288.750 C 100.749 289.392,101.191 290.096,101.360 290.314 C 101.529 290.533,101.671 290.833,101.676 290.981 C 101.681 291.129,101.978 291.737,102.336 292.333 C 102.694 292.929,103.366 294.148,103.829 295.042 L 104.670 296.667 109.686 296.667 C 114.396 296.667,114.695 296.649,114.588 296.375 C 114.525 296.215,114.360 295.753,114.221 295.349 C 113.964 294.600,112.006 290.757,111.496 290.000 C 111.342 289.771,111.169 289.396,111.113 289.167 C 111.057 288.938,110.764 288.375,110.462 287.917 C 110.160 287.458,109.433 286.258,108.845 285.250 C 107.092 282.239,106.299 280.921,106.188 280.833 C 106.028 280.707,104.907 278.953,104.799 278.659 C 104.746 278.517,104.076 277.515,103.310 276.431 C 102.544 275.348,101.842 274.339,101.750 274.189 C 101.323 273.492,99.939 271.566,99.757 271.417 C 99.645 271.325,99.198 270.731,98.764 270.096 L 97.975 268.942 98.362 268.723 C 98.576 268.603,99.132 268.389,99.599 268.248 C 103.109 267.188,107.243 263.217,109.240 258.987 C 111.783 253.599,111.372 244.120,108.409 239.824 C 108.184 239.499,108.000 239.151,108.000 239.053 C 108.000 238.267,103.008 233.500,102.186 233.500 C 102.092 233.500,101.753 233.323,101.434 233.106 C 99.795 231.994,96.015 230.666,93.257 230.235 C 88.241 229.450,83.466 229.220,78.177 229.507 M3.435 230.956 C 3.566 231.393,4.259 233.475,4.977 235.583 C 5.694 237.692,6.714 240.692,7.244 242.250 C 9.478 248.821,10.672 252.215,11.498 254.333 C 11.980 255.571,12.471 256.930,12.589 257.354 C 12.838 258.248,13.611 260.322,14.881 263.500 C 15.375 264.737,15.832 265.975,15.897 266.250 C 15.961 266.525,16.680 268.438,17.493 270.500 C 18.306 272.563,19.199 274.850,19.477 275.583 C 20.015 277.007,21.343 280.225,21.766 281.132 C 21.907 281.433,22.129 282.042,22.261 282.484 C 22.392 282.927,22.955 284.330,23.511 285.603 C 24.067 286.875,24.843 288.742,25.235 289.750 C 25.626 290.758,26.456 292.727,27.079 294.125 L 28.211 296.667 32.577 296.667 L 36.943 296.667 37.302 295.875 C 37.500 295.440,38.106 293.996,38.649 292.667 C 39.191 291.337,39.932 289.575,40.295 288.750 C 40.658 287.925,41.125 286.762,41.334 286.167 C 41.542 285.571,41.920 284.633,42.173 284.083 C 42.808 282.706,44.266 279.174,44.410 278.667 C 44.475 278.438,45.220 276.487,46.067 274.333 C 46.913 272.179,47.764 269.967,47.956 269.417 C 48.149 268.867,48.620 267.629,49.003 266.667 C 49.386 265.704,50.175 263.567,50.756 261.917 C 51.336 260.267,52.159 258.017,52.585 256.917 C 53.288 255.098,53.680 253.980,54.193 252.333 C 54.399 251.672,55.768 247.910,56.517 245.943 C 56.791 245.225,57.080 244.325,57.158 243.943 C 57.237 243.562,57.983 241.344,58.817 239.014 C 59.651 236.684,60.334 234.659,60.335 234.514 C 60.336 234.369,60.636 233.402,61.001 232.366 C 61.367 231.330,61.667 230.411,61.667 230.324 C 61.667 230.229,59.734 230.167,56.762 230.167 L 51.857 230.167 51.514 231.083 C 51.326 231.587,51.090 232.355,50.989 232.791 C 50.889 233.227,50.111 235.683,49.260 238.250 C 48.409 240.817,47.546 243.479,47.341 244.167 C 47.137 244.854,46.425 247.029,45.759 249.000 C 45.093 250.971,44.229 253.558,43.840 254.750 C 43.450 255.942,42.765 257.909,42.317 259.121 C 41.869 260.334,41.429 261.656,41.339 262.058 C 41.249 262.461,40.498 264.597,39.671 266.804 C 38.843 269.012,38.167 270.890,38.167 270.978 C 38.167 271.142,37.120 273.983,36.838 274.583 C 36.423 275.468,35.000 279.213,35.000 279.421 C 35.000 279.551,34.819 280.053,34.598 280.537 C 34.377 281.021,33.969 281.979,33.692 282.667 C 33.046 284.272,32.776 284.830,32.644 284.832 C 32.538 284.833,31.947 283.430,31.452 282.000 C 31.309 281.587,30.596 279.750,29.868 277.917 C 29.140 276.083,28.390 274.133,28.203 273.583 C 28.016 273.033,27.398 271.383,26.830 269.917 C 26.262 268.450,25.683 266.875,25.543 266.417 C 25.403 265.958,24.586 263.613,23.727 261.205 C 22.869 258.796,22.167 256.716,22.167 256.582 C 22.167 256.448,21.454 254.295,20.583 251.798 C 19.712 249.302,19.000 247.165,19.000 247.050 C 19.000 246.935,18.300 244.795,17.444 242.295 C 16.588 239.795,15.332 236.063,14.652 234.000 L 13.417 230.250 8.307 230.206 L 3.198 230.162 3.435 230.956 M317.167 231.344 C 316.652 231.471,315.746 231.644,310.958 232.534 L 309.833 232.743 309.833 255.921 C 309.833 282.474,309.831 282.424,311.092 288.081 C 312.551 294.624,318.484 298.099,327.656 297.782 C 331.089 297.664,334.808 296.862,337.429 295.673 C 338.646 295.121,338.606 295.240,338.177 293.439 C 337.583 290.950,337.033 288.589,336.919 288.042 C 336.775 287.346,336.743 287.350,334.397 288.313 C 328.340 290.800,322.138 289.931,320.332 286.341 C 318.791 283.278,318.786 283.214,318.714 267.958 L 318.650 254.500 327.658 254.500 L 336.667 254.500 336.667 250.500 L 336.667 246.500 327.667 246.500 L 318.667 246.500 318.667 238.833 L 318.667 231.167 318.208 231.184 C 317.956 231.193,317.487 231.266,317.167 231.344 M89.828 238.236 C 98.434 239.748,102.481 245.157,101.077 253.270 C 99.829 260.484,94.520 262.832,79.457 262.833 L 75.665 262.833 75.707 250.458 L 75.750 238.083 77.083 237.980 C 79.772 237.772,88.145 237.940,89.828 238.236 M130.667 245.608 C 130.438 245.642,129.313 245.788,128.167 245.930 C 125.361 246.280,124.692 246.416,122.788 247.021 L 121.159 247.538 121.253 248.061 C 121.304 248.348,121.560 250.068,121.820 251.883 C 122.373 255.735,122.236 255.470,123.453 255.027 C 128.233 253.288,136.030 252.818,139.065 254.086 C 143.050 255.751,144.992 259.365,144.998 265.125 C 144.999 266.428,144.934 267.333,144.840 267.333 C 144.752 267.333,144.058 267.189,143.298 267.012 C 133.837 264.810,123.742 267.091,119.385 272.417 C 116.678 275.725,115.595 281.882,116.893 286.583 C 117.019 287.042,117.246 287.866,117.396 288.415 C 118.328 291.818,122.373 295.661,126.000 296.587 C 130.396 297.710,130.435 297.715,135.417 297.732 C 140.171 297.748,142.249 297.598,147.833 296.836 C 149.071 296.667,150.513 296.485,151.039 296.430 C 151.564 296.376,152.373 296.250,152.837 296.150 L 153.681 295.969 153.619 278.276 C 153.553 259.067,153.609 260.275,152.595 256.348 C 152.207 254.845,151.344 252.748,151.012 252.500 C 150.951 252.454,150.720 252.154,150.499 251.833 C 148.874 249.470,145.922 247.276,143.250 246.444 C 140.778 245.675,133.458 245.188,130.667 245.608 M230.417 245.604 C 230.233 245.640,229.483 245.787,228.750 245.930 C 226.079 246.452,224.124 247.249,221.917 248.717 C 219.535 250.301,217.077 252.766,215.967 254.685 C 213.213 259.443,212.203 262.543,211.656 267.917 C 211.008 274.286,212.359 282.922,214.577 286.583 C 214.799 286.950,215.278 287.766,215.641 288.397 C 217.171 291.055,221.001 294.375,224.212 295.827 C 229.335 298.143,238.169 298.612,244.640 296.909 C 245.496 296.684,246.340 296.500,246.517 296.500 C 247.172 296.500,250.000 295.298,250.001 295.020 C 250.002 294.711,248.801 287.447,248.734 287.359 C 248.710 287.327,248.192 287.500,247.584 287.744 C 240.557 290.555,232.817 290.557,227.575 287.749 C 225.882 286.841,225.590 286.576,223.808 284.321 C 222.412 282.555,221.221 278.992,220.761 275.208 L 220.655 274.333 236.908 274.333 L 253.160 274.333 253.272 273.889 C 253.457 273.153,253.204 266.388,252.914 264.333 C 252.208 259.312,250.570 254.674,248.728 252.476 C 248.393 252.077,247.829 251.358,247.473 250.878 C 246.899 250.103,246.125 249.483,243.686 247.845 C 242.778 247.235,240.600 246.334,239.619 246.161 C 239.141 246.078,238.150 245.897,237.417 245.760 C 236.193 245.532,231.336 245.424,230.417 245.604 M379.000 245.760 C 378.313 245.896,377.375 246.075,376.917 246.158 C 375.459 246.424,372.086 247.930,371.292 248.670 C 371.107 248.842,370.684 249.111,370.352 249.266 C 369.298 249.761,365.487 253.574,365.237 254.384 C 365.175 254.585,364.880 255.088,364.582 255.500 C 359.809 262.098,358.941 276.927,362.837 285.290 C 367.817 295.979,377.967 299.973,392.364 296.908 C 397.087 295.902,396.874 296.209,396.103 291.535 C 395.382 287.164,395.534 287.516,394.536 287.907 C 388.949 290.094,383.589 290.441,378.990 288.913 C 376.231 287.997,372.879 285.191,371.825 282.917 C 368.843 276.479,368.703 268.339,371.454 261.242 C 374.085 254.454,382.961 251.687,391.750 254.916 C 392.575 255.219,393.406 255.513,393.596 255.569 C 393.907 255.660,395.798 249.452,395.900 248.009 C 395.920 247.723,393.222 246.626,391.833 246.355 C 388.618 245.729,387.561 245.623,384.000 245.569 C 381.169 245.527,379.944 245.573,379.000 245.760 M176.583 245.846 C 175.850 245.918,174.463 246.055,173.500 246.151 C 171.882 246.312,166.955 247.331,164.886 247.933 L 164.000 248.190 164.000 281.428 L 164.000 314.667 168.333 314.667 L 172.667 314.667 172.667 304.751 L 172.667 294.835 174.375 295.650 C 179.643 298.163,185.832 298.657,191.136 296.989 C 191.990 296.720,192.773 296.500,192.876 296.500 C 193.244 296.500,196.184 294.767,196.878 294.141 C 197.266 293.791,197.646 293.504,197.723 293.502 C 197.944 293.499,200.000 291.468,200.000 291.253 C 200.000 291.146,200.198 290.876,200.440 290.654 C 202.508 288.757,204.974 282.688,205.752 277.583 C 206.849 270.382,205.820 263.258,202.781 257.012 C 201.710 254.811,196.761 249.333,195.843 249.333 C 195.760 249.333,195.068 248.960,194.304 248.504 C 192.516 247.436,189.686 246.373,188.041 246.151 C 187.331 246.056,186.262 245.910,185.667 245.828 C 184.374 245.649,178.466 245.660,176.583 245.846 M260.835 261.456 C 260.837 281.002,260.978 282.550,263.267 288.004 C 264.788 291.632,268.701 295.572,271.556 296.351 C 271.938 296.456,272.662 296.674,273.167 296.837 C 277.160 298.125,284.843 298.154,292.167 296.908 C 296.158 296.229,297.533 295.963,298.583 295.668 L 299.583 295.386 299.626 270.943 L 299.668 246.500 295.251 246.500 L 290.833 246.500 290.833 267.645 L 290.833 288.790 289.875 288.977 C 278.967 291.105,272.939 288.975,270.840 282.250 C 269.909 279.267,269.946 279.995,269.844 262.667 L 269.750 246.583 265.292 246.539 L 260.833 246.495 260.835 261.456 M343.500 271.581 L 343.500 296.667 347.917 296.667 L 352.334 296.667 352.292 271.625 L 352.250 246.583 347.875 246.539 L 343.500 246.494 343.500 271.581 M235.907 253.606 C 240.625 254.810,244.157 260.164,244.166 266.125 L 244.167 266.833 232.510 266.833 L 220.854 266.833 220.945 266.208 C 222.259 257.127,228.640 251.753,235.907 253.606 M185.057 254.176 C 185.988 254.364,187.237 254.730,187.833 254.989 C 188.429 255.248,189.104 255.534,189.333 255.624 C 190.052 255.908,193.667 259.160,193.667 259.522 C 193.667 259.599,194.039 260.313,194.495 261.107 C 198.061 267.326,197.731 277.805,193.754 284.665 C 193.400 285.274,191.674 287.167,191.472 287.167 C 191.376 287.167,191.013 287.392,190.665 287.668 C 186.623 290.870,178.824 290.356,173.458 286.535 L 172.667 285.972 172.667 270.409 L 172.667 254.846 173.292 254.684 C 176.636 253.815,182.108 253.579,185.057 254.176 M139.417 273.829 C 141.255 273.956,142.707 274.168,144.625 274.590 L 145.000 274.673 145.000 282.068 L 145.000 289.464 144.625 289.556 C 142.230 290.142,134.505 290.281,132.167 289.780 C 127.380 288.753,125.195 286.106,125.362 281.535 C 125.551 276.381,128.650 274.293,137.000 273.696 C 137.137 273.686,138.225 273.746,139.417 273.829 " stroke="none" fill="#3b3b3b" fill-rule="evenodd"></path><path id="path2" d="M119.961 34.166 C 118.792 34.518,117.500 35.962,117.500 36.917 C 117.500 37.075,117.352 37.477,117.171 37.811 C 116.757 38.573,114.333 44.028,114.333 44.196 C 114.333 44.265,113.725 45.655,112.982 47.286 C 112.239 48.916,111.499 50.627,111.338 51.087 C 111.176 51.547,110.634 52.822,110.133 53.920 C 109.632 55.018,108.937 56.592,108.590 57.417 C 108.243 58.242,107.330 60.322,106.562 62.040 C 105.795 63.758,105.167 65.269,105.167 65.397 C 105.167 65.525,104.784 66.482,104.315 67.523 C 103.847 68.565,103.165 70.129,102.799 71.000 C 102.433 71.871,101.473 74.083,100.666 75.917 C 99.859 77.750,98.859 80.037,98.445 81.000 C 97.095 84.138,95.661 87.395,95.159 88.466 C 94.888 89.043,94.667 89.545,94.667 89.581 C 94.667 89.617,94.339 90.345,93.939 91.198 C 93.028 93.140,92.242 94.956,92.078 95.500 C 92.008 95.729,91.287 97.374,90.476 99.155 C 89.664 100.936,89.000 102.462,89.000 102.546 C 89.000 102.684,87.148 106.879,86.555 108.083 C 86.420 108.358,86.041 109.258,85.715 110.083 C 85.388 110.908,84.822 112.221,84.459 113.000 C 84.095 113.779,83.328 115.542,82.754 116.917 C 82.180 118.292,81.327 120.279,80.857 121.333 C 79.185 125.086,79.797 126.693,83.610 128.560 C 85.753 129.608,85.835 129.650,88.700 131.186 C 90.048 131.909,91.250 132.500,91.371 132.500 C 91.493 132.500,91.740 132.602,91.921 132.726 C 92.730 133.281,97.284 135.667,97.535 135.667 C 97.637 135.667,98.290 135.995,98.985 136.396 C 100.592 137.322,103.514 138.833,103.699 138.833 C 103.776 138.833,104.120 139.009,104.462 139.224 C 105.076 139.609,115.256 144.833,115.393 144.833 C 115.432 144.833,116.272 143.465,117.259 141.792 C 118.246 140.119,119.631 137.775,120.336 136.583 C 123.651 130.984,124.906 128.858,126.580 126.000 C 127.574 124.304,128.963 121.942,129.666 120.750 C 133.635 114.031,136.284 109.531,141.883 100.000 C 142.987 98.121,144.578 95.421,145.419 94.000 C 146.259 92.579,147.718 90.104,148.661 88.500 C 149.605 86.896,150.862 84.770,151.456 83.775 C 152.050 82.781,152.795 81.510,153.111 80.951 L 153.685 79.935 152.536 78.259 C 151.904 77.337,149.673 74.033,147.579 70.917 C 145.485 67.800,142.575 63.487,141.114 61.333 C 139.652 59.179,138.374 57.229,138.275 57.000 C 138.175 56.771,137.191 55.249,136.088 53.619 C 134.986 51.988,133.671 50.030,133.167 49.267 C 132.286 47.933,128.600 42.477,127.414 40.750 C 127.099 40.292,126.108 38.840,125.212 37.524 C 122.916 34.151,121.986 33.556,119.961 34.166 M87.224 69.939 C 87.283 70.045,87.183 70.167,86.998 70.216 C 86.776 70.274,86.704 70.239,86.782 70.109 C 86.845 70.003,86.770 70.020,86.615 70.145 C 86.460 70.271,86.333 70.323,86.333 70.261 C 86.333 70.199,86.167 70.265,85.963 70.407 C 85.759 70.550,85.478 70.666,85.338 70.664 C 85.113 70.662,85.112 70.643,85.333 70.500 C 85.508 70.387,85.519 70.338,85.370 70.336 C 85.252 70.334,85.112 70.448,85.059 70.588 C 84.978 70.797,84.915 70.804,84.699 70.629 C 84.554 70.512,84.484 70.496,84.542 70.594 C 84.640 70.758,83.361 71.115,82.102 71.275 C 81.838 71.308,81.291 71.447,80.888 71.584 C 80.485 71.721,80.045 71.833,79.911 71.833 C 79.777 71.833,79.667 71.913,79.667 72.010 C 79.667 72.107,79.592 72.140,79.501 72.084 C 79.410 72.028,78.754 72.147,78.043 72.349 C 77.332 72.550,76.600 72.731,76.417 72.749 C 76.233 72.768,75.971 72.826,75.833 72.878 C 75.696 72.930,75.358 73.017,75.083 73.072 C 73.914 73.302,73.720 73.370,73.138 73.752 C 70.690 75.359,70.750 78.961,73.250 80.497 C 73.720 80.786,75.431 81.375,78.917 82.447 C 79.742 82.701,80.492 82.914,80.583 82.920 C 80.675 82.927,80.925 83.028,81.139 83.146 C 81.353 83.264,81.571 83.317,81.624 83.265 C 81.676 83.212,81.820 83.253,81.943 83.355 C 82.066 83.457,82.167 83.498,82.167 83.446 C 82.167 83.393,82.429 83.460,82.750 83.594 C 83.071 83.728,83.334 83.781,83.336 83.711 C 83.337 83.641,83.411 83.696,83.500 83.833 C 83.631 84.037,83.662 84.040,83.664 83.849 C 83.666 83.654,83.715 83.657,83.958 83.866 C 84.319 84.176,84.890 84.393,84.750 84.167 C 84.589 83.906,85.226 84.198,85.453 84.490 C 85.629 84.716,85.657 84.717,85.666 84.500 C 85.675 84.290,85.702 84.293,85.834 84.519 C 85.941 84.702,86.135 84.761,86.437 84.704 C 86.766 84.641,86.849 84.673,86.754 84.827 C 86.659 84.980,86.720 85.006,86.979 84.923 C 87.180 84.860,87.333 84.883,87.333 84.978 C 87.333 85.071,87.483 85.135,87.667 85.121 C 87.995 85.096,88.000 84.976,88.000 77.530 C 88.000 71.171,87.963 69.978,87.770 70.052 C 87.644 70.101,87.445 70.053,87.329 69.945 C 87.183 69.810,87.150 69.808,87.224 69.939 M155.453 83.361 C 155.321 83.575,154.462 85.025,153.545 86.583 C 152.629 88.142,151.014 90.879,149.957 92.667 C 146.689 98.197,143.660 103.334,142.539 105.250 C 141.451 107.110,139.848 109.829,137.085 114.500 C 136.245 115.921,134.633 118.658,133.504 120.583 C 132.375 122.508,131.136 124.608,130.750 125.250 C 130.364 125.892,129.124 127.992,127.995 129.917 C 125.901 133.485,123.613 137.363,121.749 140.500 C 119.815 143.756,118.319 146.374,118.368 146.416 C 118.395 146.438,120.217 147.375,122.417 148.496 C 124.617 149.618,127.729 151.213,129.333 152.040 C 133.483 154.180,135.486 155.167,135.681 155.167 C 135.932 155.167,136.869 155.664,137.250 155.999 C 137.720 156.414,149.310 162.333,149.651 162.333 C 149.849 162.333,153.658 160.810,157.196 159.315 C 158.908 158.592,160.398 158.000,160.506 158.000 C 160.615 158.000,161.381 157.661,162.208 157.247 C 163.034 156.833,164.620 156.114,165.730 155.649 C 166.841 155.184,168.017 154.668,168.344 154.504 C 168.671 154.339,169.587 153.925,170.380 153.585 C 171.174 153.244,171.860 152.842,171.906 152.691 C 172.021 152.315,173.024 148.837,174.013 145.387 C 174.464 143.813,174.833 142.400,174.833 142.249 C 174.833 142.097,175.442 139.860,176.187 137.278 C 176.931 134.696,177.652 132.096,177.788 131.500 C 178.065 130.292,178.783 127.675,180.012 123.387 C 180.950 120.118,180.945 120.153,180.504 119.754 C 180.323 119.590,180.215 119.390,180.264 119.311 C 180.313 119.232,180.276 119.167,180.182 119.167 C 180.088 119.167,180.051 119.062,180.100 118.934 C 180.149 118.805,180.098 118.644,179.986 118.574 C 179.855 118.494,179.825 118.518,179.901 118.641 C 179.966 118.747,179.940 118.833,179.843 118.833 C 179.746 118.833,179.667 118.646,179.667 118.417 C 179.667 118.188,179.592 118.000,179.500 118.000 C 179.408 118.000,179.352 117.906,179.375 117.792 C 179.398 117.677,179.330 117.600,179.224 117.620 C 179.118 117.640,178.988 117.542,178.934 117.403 C 178.870 117.234,178.906 117.188,179.044 117.266 C 179.157 117.330,179.100 117.225,178.917 117.033 C 178.449 116.541,178.167 116.193,178.167 116.107 C 178.167 115.946,176.958 114.234,176.679 114.000 C 176.515 113.862,175.260 112.063,173.890 110.000 C 171.472 106.360,166.218 98.536,162.082 92.417 C 160.967 90.767,159.094 87.992,157.920 86.250 C 156.746 84.508,155.765 83.058,155.740 83.027 C 155.714 82.996,155.585 83.146,155.453 83.361 M169.083 158.451 C 168.258 158.775,166.346 159.528,164.833 160.125 C 163.321 160.721,161.894 161.233,161.662 161.264 C 161.430 161.294,160.418 161.663,159.412 162.083 C 158.406 162.504,156.908 163.114,156.083 163.438 C 155.258 163.762,154.402 164.100,154.181 164.189 C 153.658 164.399,153.852 164.593,155.417 165.423 C 156.058 165.764,156.658 166.095,156.750 166.159 C 156.842 166.223,157.273 166.408,157.708 166.568 C 158.144 166.729,158.500 166.942,158.500 167.042 C 158.500 167.141,158.549 167.173,158.609 167.113 C 158.669 167.053,158.950 167.147,159.234 167.322 C 160.114 167.862,164.572 170.055,164.792 170.055 C 164.906 170.055,165.000 170.113,165.000 170.183 C 165.000 170.320,165.668 170.588,165.875 170.533 C 165.944 170.515,166.000 170.556,166.000 170.625 C 166.001 170.898,166.971 170.816,167.082 170.534 C 167.338 169.883,168.496 165.726,168.498 165.453 C 168.500 165.133,170.430 158.248,170.590 157.989 C 170.643 157.903,170.663 157.840,170.635 157.848 C 170.607 157.855,169.908 158.127,169.083 158.451 " stroke="none" fill="#80c5e7" fill-rule="evenodd"></path><path id="path3" d="M243.333 29.631 C 243.333 29.738,244.121 30.354,245.083 31.000 C 246.046 31.646,246.833 32.137,246.833 32.091 C 246.833 32.046,246.140 31.547,245.292 30.984 C 244.444 30.420,243.656 29.841,243.542 29.698 C 243.421 29.546,243.333 29.518,243.333 29.631 M241.333 32.046 C 241.333 32.082,241.765 32.401,242.292 32.755 C 242.819 33.109,243.344 33.468,243.458 33.553 C 243.573 33.638,243.667 33.664,243.667 33.610 C 243.667 33.556,243.235 33.223,242.708 32.869 C 241.550 32.090,241.333 31.961,241.333 32.046 M247.500 32.575 C 247.500 32.621,248.175 33.112,249.000 33.667 C 249.825 34.221,250.500 34.638,250.500 34.592 C 250.500 34.546,249.825 34.055,249.000 33.500 C 248.175 32.945,247.500 32.529,247.500 32.575 M246.000 35.218 C 246.000 35.292,247.222 36.149,247.664 36.385 C 247.803 36.460,247.712 36.346,247.461 36.131 C 246.966 35.708,246.000 35.104,246.000 35.218 M251.667 35.409 C 251.667 35.455,252.454 36.021,253.417 36.667 C 254.379 37.312,255.167 37.803,255.167 37.757 C 255.167 37.712,254.379 37.146,253.417 36.500 C 252.454 35.854,251.667 35.363,251.667 35.409 M248.000 36.571 C 248.000 36.617,248.450 36.960,249.000 37.333 C 249.550 37.707,250.000 37.975,250.000 37.929 C 250.000 37.883,249.550 37.540,249.000 37.167 C 248.450 36.793,248.000 36.525,248.000 36.571 M255.833 38.242 C 255.833 38.287,256.525 38.795,257.370 39.371 C 259.271 40.665,259.333 40.704,259.333 40.595 C 259.333 40.547,258.546 39.979,257.583 39.333 C 256.621 38.688,255.833 38.196,255.833 38.242 M250.667 38.400 C 250.667 38.441,251.454 39.007,252.417 39.659 C 253.379 40.311,254.167 40.810,254.167 40.769 C 254.167 40.728,253.585 40.292,252.875 39.800 C 251.255 38.678,250.667 38.305,250.667 38.400 M204.000 39.764 C 203.454 39.988,203.449 39.997,203.917 39.906 C 204.192 39.853,204.488 39.740,204.575 39.655 C 204.775 39.460,204.717 39.471,204.000 39.764 M260.500 41.398 C 260.500 41.439,261.081 41.877,261.792 42.372 C 263.295 43.420,263.500 43.548,263.500 43.440 C 263.500 43.397,262.825 42.903,262.000 42.342 C 261.175 41.782,260.500 41.357,260.500 41.398 M255.333 41.582 C 255.333 41.624,256.121 42.188,257.083 42.833 C 258.046 43.479,258.833 43.971,258.833 43.925 C 258.833 43.880,258.253 43.447,257.543 42.963 C 255.872 41.824,255.333 41.487,255.333 41.582 M264.667 44.227 C 264.667 44.273,264.892 44.471,265.167 44.667 C 265.442 44.862,265.667 44.985,265.667 44.939 C 265.667 44.894,265.442 44.696,265.167 44.500 C 264.892 44.304,264.667 44.181,264.667 44.227 M259.500 44.409 C 259.500 44.455,260.287 45.021,261.250 45.667 C 262.212 46.312,263.000 46.803,263.000 46.757 C 263.000 46.712,262.212 46.146,261.250 45.500 C 260.287 44.854,259.500 44.363,259.500 44.409 M266.333 45.386 C 266.333 45.459,268.535 46.995,269.000 47.247 C 269.484 47.509,268.924 47.060,267.833 46.313 C 266.491 45.393,266.333 45.295,266.333 45.386 M176.232 47.725 C 175.277 49.307,174.801 50.167,174.880 50.167 C 174.990 50.167,176.877 46.987,176.807 46.921 C 176.776 46.891,176.517 47.253,176.232 47.725 M264.167 47.575 C 264.167 47.621,264.842 48.112,265.667 48.667 C 266.492 49.221,267.167 49.638,267.167 49.592 C 267.167 49.546,266.492 49.055,265.667 48.500 C 264.842 47.945,264.167 47.529,264.167 47.575 M270.500 48.243 C 270.500 48.288,271.287 48.854,272.250 49.500 C 273.212 50.146,274.000 50.637,274.000 50.591 C 274.000 50.545,273.212 49.979,272.250 49.333 C 271.287 48.688,270.500 48.197,270.500 48.243 M172.147 48.708 C 172.037 48.915,171.839 49.271,171.706 49.500 C 171.475 49.900,171.476 49.903,171.745 49.583 C 172.077 49.188,172.544 48.333,172.427 48.333 C 172.382 48.333,172.256 48.502,172.147 48.708 M268.333 50.409 C 268.333 50.455,269.121 51.021,270.083 51.667 C 271.046 52.312,271.833 52.803,271.833 52.757 C 271.833 52.712,271.046 52.146,270.083 51.500 C 269.121 50.854,268.333 50.363,268.333 50.409 M170.076 52.208 C 169.643 52.965,169.257 53.640,169.218 53.708 C 169.179 53.777,169.180 53.833,169.221 53.833 C 169.291 53.833,170.394 52.018,170.816 51.208 C 171.309 50.263,170.781 50.975,170.076 52.208 M275.167 51.421 C 275.167 51.539,276.500 52.390,276.569 52.316 C 276.603 52.280,276.302 52.047,275.899 51.798 C 275.496 51.550,275.167 51.380,275.167 51.421 M172.816 53.542 C 172.158 54.665,171.588 55.640,171.550 55.708 C 171.512 55.777,171.515 55.833,171.558 55.833 C 171.601 55.833,172.105 55.027,172.679 54.042 C 173.253 53.056,173.831 52.081,173.964 51.875 C 174.096 51.669,174.162 51.500,174.109 51.500 C 174.056 51.500,173.474 52.419,172.816 53.542 M273.667 54.049 C 273.667 54.087,274.192 54.467,274.833 54.894 C 275.475 55.320,276.000 55.634,276.000 55.591 C 276.000 55.548,275.569 55.223,275.042 54.869 C 273.874 54.084,273.667 53.961,273.667 54.049 M167.241 57.042 C 165.691 59.692,165.796 59.500,165.891 59.500 C 165.933 59.500,166.549 58.506,167.259 57.292 C 168.809 54.641,168.704 54.833,168.609 54.833 C 168.567 54.833,167.951 55.827,167.241 57.042 M276.667 56.052 C 276.667 56.093,276.942 56.337,277.279 56.594 C 277.615 56.850,277.838 56.975,277.773 56.871 C 277.642 56.658,276.667 55.936,276.667 56.052 M169.954 58.375 C 168.895 60.165,168.626 60.667,168.729 60.667 C 168.784 60.667,170.285 58.162,170.951 56.958 C 170.989 56.890,170.985 56.833,170.943 56.833 C 170.900 56.833,170.455 57.527,169.954 58.375 M163.997 62.542 C 163.607 63.206,163.143 63.994,162.964 64.292 C 162.786 64.590,162.679 64.833,162.727 64.833 C 162.793 64.833,164.012 62.831,164.783 61.458 C 164.821 61.390,164.820 61.333,164.779 61.333 C 164.738 61.333,164.386 61.877,163.997 62.542 M166.715 63.875 C 165.788 65.398,165.287 66.333,165.397 66.333 C 165.437 66.333,165.937 65.527,166.509 64.542 C 167.791 62.331,167.699 62.500,167.619 62.500 C 167.582 62.500,167.175 63.119,166.715 63.875 M160.491 68.458 C 159.920 69.444,159.421 70.306,159.383 70.375 C 159.345 70.444,159.346 70.500,159.386 70.500 C 159.426 70.500,159.870 69.806,160.373 68.958 C 161.445 67.151,161.705 66.667,161.605 66.667 C 161.564 66.667,161.063 67.473,160.491 68.458 M163.530 69.292 C 162.203 71.551,161.960 72.000,162.062 72.000 C 162.103 72.000,162.603 71.194,163.174 70.208 C 163.744 69.223,164.357 68.173,164.536 67.875 C 164.714 67.577,164.820 67.333,164.770 67.333 C 164.720 67.333,164.162 68.215,163.530 69.292 M157.497 73.542 C 156.028 76.015,156.128 75.833,156.234 75.833 C 156.282 75.833,156.799 75.027,157.383 74.042 C 158.620 71.957,158.870 71.500,158.777 71.500 C 158.740 71.500,158.164 72.419,157.497 73.542 M160.146 75.042 C 159.487 76.165,158.370 78.058,157.663 79.250 C 156.203 81.709,155.954 82.167,156.072 82.167 C 156.118 82.167,156.583 81.435,157.105 80.542 C 157.627 79.648,158.804 77.642,159.719 76.083 C 161.703 72.706,161.540 73.000,161.432 73.000 C 161.383 73.000,160.805 73.919,160.146 75.042 M154.378 78.792 C 153.037 81.044,152.789 81.500,152.904 81.500 C 152.978 81.500,154.990 78.151,155.483 77.208 C 156.015 76.189,155.414 77.049,154.378 78.792 M151.826 83.125 C 151.541 83.601,149.526 87.053,149.052 87.875 C 149.013 87.944,149.017 88.000,149.061 88.000 C 149.147 88.000,151.604 83.945,152.065 83.042 C 152.443 82.302,152.285 82.357,151.826 83.125 M154.116 85.292 C 152.342 88.269,152.121 88.667,152.239 88.667 C 152.285 88.667,152.973 87.560,153.767 86.208 C 154.562 84.856,155.358 83.506,155.536 83.208 C 155.714 82.910,155.820 82.667,155.770 82.667 C 155.720 82.667,154.976 83.848,154.116 85.292 M147.897 89.792 C 147.377 90.685,146.262 92.579,145.420 94.000 C 143.373 97.453,142.971 98.167,143.068 98.167 C 143.114 98.167,143.806 97.060,144.606 95.708 C 145.406 94.356,146.599 92.350,147.256 91.250 C 148.581 89.031,149.050 88.167,148.926 88.167 C 148.881 88.167,148.418 88.898,147.897 89.792 M150.863 90.792 C 149.527 93.067,149.293 93.500,149.399 93.500 C 149.442 93.500,149.996 92.619,150.631 91.542 C 151.984 89.246,152.207 88.833,152.096 88.833 C 152.050 88.833,151.495 89.715,150.863 90.792 M147.479 96.542 C 146.821 97.665,145.703 99.558,144.996 100.750 C 143.585 103.126,143.202 103.837,143.466 103.583 C 143.793 103.269,148.905 94.500,148.761 94.500 C 148.715 94.500,148.138 95.419,147.479 96.542 M141.327 100.958 C 140.480 102.402,139.755 103.640,139.717 103.708 C 139.678 103.777,139.684 103.833,139.730 103.833 C 139.819 103.833,142.276 99.777,142.734 98.875 C 143.385 97.592,142.755 98.524,141.327 100.958 M136.957 108.375 C 134.197 113.060,133.948 113.500,134.061 113.500 C 134.101 113.500,134.564 112.769,135.090 111.875 C 135.616 110.981,136.776 109.013,137.668 107.500 C 139.437 104.501,139.715 104.000,139.607 104.000 C 139.567 104.000,138.375 105.969,136.957 108.375 M141.530 106.625 C 140.189 108.909,139.960 109.333,140.068 109.333 C 140.138 109.333,140.825 108.194,142.407 105.458 C 142.659 105.023,142.823 104.667,142.772 104.667 C 142.721 104.667,142.162 105.548,141.530 106.625 M287.790 106.203 C 287.079 106.487,286.526 106.748,286.561 106.783 C 286.623 106.845,289.180 105.874,289.319 105.736 C 289.485 105.572,288.998 105.721,287.790 106.203 M289.417 108.824 C 289.050 108.998,288.797 109.146,288.855 109.153 C 289.016 109.174,290.167 108.673,290.167 108.581 C 290.167 108.469,290.166 108.470,289.417 108.824 M279.792 109.461 C 278.990 109.788,278.362 110.084,278.397 110.119 C 278.469 110.191,281.500 109.000,281.500 108.899 C 281.500 108.781,281.272 108.856,279.792 109.461 M138.529 111.708 C 137.810 112.902,135.958 116.100,135.705 116.583 C 135.647 116.694,135.674 116.694,135.787 116.583 C 136.122 116.253,139.576 110.333,139.434 110.333 C 139.391 110.333,138.983 110.952,138.529 111.708 M282.462 111.624 C 281.661 111.957,281.035 112.257,281.070 112.292 C 281.130 112.352,284.008 111.210,284.153 111.068 C 284.331 110.893,283.798 111.069,282.462 111.624 M274.667 111.583 C 274.438 111.714,274.325 111.822,274.417 111.822 C 274.508 111.822,274.771 111.714,275.000 111.583 C 275.229 111.452,275.342 111.345,275.250 111.345 C 275.158 111.345,274.896 111.452,274.667 111.583 M272.459 112.452 C 271.657 112.785,271.031 113.087,271.067 113.123 C 271.129 113.185,274.004 112.047,274.153 111.901 C 274.336 111.722,273.790 111.900,272.459 112.452 M280.167 112.583 C 279.938 112.714,279.825 112.822,279.917 112.822 C 280.008 112.822,280.271 112.714,280.500 112.583 C 280.729 112.452,280.842 112.345,280.750 112.345 C 280.658 112.345,280.396 112.452,280.167 112.583 M132.540 115.875 C 130.677 119.013,130.308 119.667,130.403 119.667 C 130.450 119.667,131.076 118.673,131.795 117.458 C 133.705 114.231,134.023 113.667,133.933 113.667 C 133.889 113.667,133.262 114.660,132.540 115.875 M275.118 114.612 C 274.311 114.939,273.680 115.235,273.714 115.269 C 273.773 115.328,276.677 114.204,276.819 114.067 C 277.000 113.893,276.461 114.066,275.118 114.612 M264.868 115.536 C 263.742 115.998,262.850 116.405,262.886 116.441 C 262.953 116.509,266.980 114.909,267.136 114.753 C 267.329 114.560,266.819 114.736,264.868 115.536 M272.833 115.583 C 272.604 115.714,272.492 115.822,272.583 115.822 C 272.675 115.822,272.938 115.714,273.167 115.583 C 273.396 115.452,273.508 115.345,273.417 115.345 C 273.325 115.345,273.063 115.452,272.833 115.583 M134.563 118.458 C 134.041 119.352,133.078 120.983,132.422 122.083 C 130.787 124.826,130.128 126.000,130.222 126.000 C 130.266 126.000,130.845 125.081,131.508 123.958 C 132.172 122.835,133.295 120.942,134.003 119.750 C 135.462 117.294,135.713 116.833,135.595 116.833 C 135.549 116.833,135.084 117.565,134.563 118.458 M266.951 117.945 C 266.145 118.273,265.513 118.569,265.547 118.602 C 265.606 118.662,268.511 117.538,268.653 117.400 C 268.833 117.227,268.294 117.399,266.951 117.945 M189.417 118.173 C 189.967 118.350,190.492 118.490,190.583 118.485 C 190.870 118.467,189.101 117.859,188.750 117.855 C 188.567 117.853,188.867 117.996,189.417 118.173 M256.876 118.795 C 255.845 119.214,255.030 119.586,255.064 119.620 C 255.136 119.691,259.000 118.166,259.000 118.066 C 259.000 117.945,258.763 118.026,256.876 118.795 M180.842 120.167 C 181.137 120.763,181.555 121.487,181.770 121.776 L 182.160 122.302 181.833 123.250 C 181.654 123.772,181.389 124.773,181.244 125.475 C 181.100 126.176,180.604 128.063,180.142 129.667 C 179.680 131.271,179.076 133.371,178.800 134.333 C 178.524 135.296,178.221 136.458,178.127 136.917 C 178.033 137.375,177.433 139.587,176.793 141.833 C 176.153 144.079,175.440 146.667,175.207 147.583 C 174.138 151.796,174.104 151.896,173.667 152.115 C 172.905 152.496,170.328 153.667,170.250 153.667 C 170.208 153.667,169.629 153.920,168.962 154.230 C 168.295 154.539,166.841 155.176,165.730 155.644 C 164.620 156.112,163.034 156.833,162.208 157.247 C 161.381 157.661,160.617 158.000,160.511 158.000 C 160.404 158.000,159.140 158.499,157.700 159.109 C 156.261 159.719,153.808 160.728,152.250 161.352 C 150.692 161.977,149.579 162.490,149.778 162.494 C 149.976 162.497,150.501 162.342,150.945 162.148 C 151.388 161.954,153.287 161.173,155.167 160.411 C 157.046 159.649,160.533 158.229,162.917 157.255 C 165.300 156.281,168.188 155.108,169.333 154.649 C 170.479 154.190,172.842 153.225,174.583 152.505 C 176.325 151.785,178.800 150.770,180.083 150.250 C 181.367 149.730,183.954 148.678,185.833 147.913 C 187.713 147.147,190.900 145.851,192.917 145.031 C 195.238 144.088,196.583 143.455,196.583 143.307 C 196.583 143.179,195.908 142.071,195.083 140.845 C 194.258 139.619,193.185 138.023,192.698 137.298 C 192.212 136.574,191.518 135.591,191.158 135.115 C 190.797 134.639,190.501 134.185,190.501 134.106 C 190.500 134.027,189.910 133.127,189.188 132.106 C 188.466 131.085,187.520 129.688,187.084 129.000 C 186.649 128.313,185.815 127.104,185.230 126.314 C 184.645 125.524,184.167 124.800,184.167 124.705 C 184.167 124.610,183.901 124.213,183.576 123.824 C 183.251 123.436,182.794 122.791,182.560 122.392 C 182.326 121.993,182.076 121.703,182.003 121.748 C 181.930 121.793,181.881 121.699,181.894 121.540 C 181.906 121.380,181.818 121.270,181.696 121.296 C 181.575 121.321,181.519 121.270,181.573 121.183 C 181.627 121.095,181.433 120.662,181.142 120.220 C 180.334 118.993,180.252 118.978,180.842 120.167 M128.814 122.208 C 128.156 123.331,127.473 124.494,127.295 124.792 C 127.118 125.090,127.013 125.333,127.062 125.333 C 127.111 125.333,127.804 124.227,128.601 122.875 C 130.328 119.948,130.207 120.167,130.098 120.167 C 130.050 120.167,129.472 121.085,128.814 122.208 M258.952 121.202 C 258.055 121.573,257.348 121.904,257.383 121.938 C 257.447 122.002,260.658 120.731,260.806 120.583 C 260.990 120.399,260.507 120.560,258.952 121.202 M248.750 122.108 C 247.673 122.568,247.328 122.786,248.000 122.581 C 248.611 122.395,250.111 121.695,249.917 121.687 C 249.825 121.683,249.300 121.873,248.750 122.108 M251.100 124.418 C 250.100 124.827,249.238 125.213,249.183 125.274 C 249.063 125.409,249.114 125.391,251.333 124.503 C 252.296 124.119,253.115 123.773,253.153 123.735 C 253.347 123.543,252.745 123.743,251.100 124.418 M243.167 124.417 C 242.938 124.548,242.825 124.655,242.917 124.655 C 243.008 124.655,243.271 124.548,243.500 124.417 C 243.729 124.286,243.842 124.178,243.750 124.178 C 243.658 124.178,243.396 124.286,243.167 124.417 M240.959 125.286 C 240.157 125.618,239.529 125.918,239.564 125.953 C 239.622 126.011,242.501 124.873,242.653 124.732 C 242.844 124.553,242.278 124.738,240.959 125.286 M125.960 127.042 C 124.868 128.884,124.628 129.333,124.738 129.333 C 124.821 129.333,126.245 126.976,126.741 126.017 C 127.278 124.980,126.851 125.539,125.960 127.042 M128.618 128.542 C 127.071 131.150,126.786 131.667,126.894 131.667 C 126.933 131.667,127.660 130.485,128.509 129.042 C 130.326 125.951,130.207 126.167,130.107 126.167 C 130.063 126.167,129.393 127.235,128.618 128.542 M243.212 127.622 C 242.183 128.048,241.369 128.424,241.403 128.459 C 241.464 128.520,245.178 127.044,245.319 126.903 C 245.507 126.716,244.921 126.915,243.212 127.622 M233.785 128.202 C 232.888 128.573,232.185 128.908,232.224 128.946 C 232.292 129.014,235.487 127.736,235.645 127.577 C 235.823 127.399,235.325 127.567,233.785 128.202 M235.875 130.617 C 234.843 131.041,234.029 131.418,234.065 131.454 C 234.126 131.515,237.831 130.046,237.986 129.899 C 238.184 129.712,237.568 129.922,235.875 130.617 M122.826 132.375 C 121.060 135.365,120.929 135.600,121.125 135.417 C 121.459 135.105,124.262 130.333,124.112 130.333 C 124.068 130.333,123.489 131.252,122.826 132.375 M233.125 131.762 C 232.873 131.899,232.668 132.102,232.669 132.214 C 232.671 132.356,232.708 132.362,232.794 132.233 C 232.862 132.131,233.142 131.928,233.417 131.781 C 233.692 131.634,233.842 131.513,233.750 131.513 C 233.658 131.513,233.377 131.625,233.125 131.762 M125.275 134.208 C 124.777 135.056,123.660 136.950,122.794 138.417 C 121.025 141.411,120.790 141.833,120.895 141.833 C 120.935 141.833,121.399 141.102,121.926 140.208 C 122.454 139.315,123.576 137.421,124.421 136.000 C 126.124 133.134,126.383 132.667,126.264 132.667 C 126.219 132.667,125.774 133.360,125.275 134.208 M119.479 138.042 C 118.821 139.165,117.682 141.096,116.949 142.333 C 115.305 145.106,115.413 144.907,115.631 144.772 C 115.731 144.710,116.055 144.230,116.350 143.705 C 116.646 143.180,117.689 141.400,118.668 139.750 C 120.668 136.380,120.880 136.000,120.761 136.000 C 120.715 136.000,120.138 136.919,119.479 138.042 M119.495 144.008 C 118.835 145.113,118.331 146.053,118.375 146.097 C 118.420 146.142,118.831 145.519,119.290 144.714 C 119.749 143.909,120.292 142.969,120.495 142.625 C 120.699 142.281,120.828 142.000,120.781 142.000 C 120.734 142.000,120.155 142.904,119.495 144.008 M196.500 146.688 C 195.629 147.061,193.192 148.065,191.083 148.919 C 188.975 149.773,185.300 151.270,182.917 152.245 C 180.533 153.220,177.908 154.288,177.083 154.618 C 176.258 154.949,174.158 155.814,172.417 156.540 C 170.675 157.267,168.688 158.071,168.000 158.326 C 167.313 158.581,165.813 159.187,164.667 159.671 C 163.521 160.155,161.233 161.094,159.583 161.758 C 153.035 164.391,153.156 164.332,153.759 164.564 C 153.906 164.620,153.974 164.592,153.916 164.499 C 153.860 164.409,153.988 164.266,154.199 164.181 C 154.410 164.096,155.258 163.762,156.083 163.438 C 156.908 163.114,158.406 162.504,159.412 162.083 C 160.418 161.663,161.430 161.294,161.662 161.265 C 161.894 161.236,163.171 160.781,164.500 160.254 C 168.090 158.830,169.674 158.225,170.417 157.991 C 170.783 157.876,171.383 157.651,171.750 157.491 C 172.534 157.148,172.601 157.237,172.281 158.198 C 172.150 158.593,171.951 159.329,171.839 159.833 C 171.541 161.180,170.649 164.450,169.507 168.386 C 168.344 172.394,168.322 172.200,170.026 172.981 C 170.699 173.290,171.362 173.604,171.500 173.681 C 173.260 174.657,177.188 176.667,177.337 176.667 C 177.444 176.667,177.731 176.808,177.974 176.980 C 178.218 177.153,179.879 178.042,181.667 178.957 C 183.454 179.871,186.867 181.617,189.250 182.836 C 191.633 184.055,193.846 185.214,194.167 185.413 C 194.487 185.611,195.088 185.906,195.500 186.067 C 195.912 186.229,196.475 186.496,196.750 186.662 C 197.025 186.827,198.900 187.808,200.917 188.842 C 207.497 192.214,210.369 193.688,213.333 195.215 C 218.935 198.100,222.772 200.070,225.750 201.588 C 227.400 202.429,229.125 203.321,229.583 203.571 C 231.402 204.561,233.538 203.894,234.437 202.056 C 235.213 200.471,234.822 199.326,232.428 196.167 C 232.046 195.662,231.680 195.110,231.615 194.939 C 231.549 194.767,230.856 193.717,230.074 192.605 C 229.292 191.493,228.074 189.718,227.368 188.661 C 226.661 187.603,225.952 186.553,225.790 186.327 C 225.629 186.101,225.086 185.298,224.582 184.542 C 222.672 181.673,221.784 180.356,220.454 178.424 C 219.700 177.327,218.824 176.015,218.506 175.507 C 218.189 174.999,217.486 173.983,216.944 173.250 C 216.402 172.517,215.915 171.804,215.862 171.667 C 215.809 171.529,215.125 170.489,214.341 169.356 C 213.558 168.222,212.629 166.835,212.278 166.273 C 211.927 165.710,211.352 164.875,211.000 164.417 C 210.648 163.958,210.073 163.126,209.722 162.567 C 208.648 160.858,206.620 157.920,206.472 157.861 C 206.396 157.831,206.333 157.713,206.333 157.599 C 206.333 157.390,205.010 155.397,204.411 154.704 C 204.231 154.496,203.708 153.729,203.250 153.001 C 201.135 149.640,198.582 146.000,198.342 146.005 C 198.200 146.008,197.371 146.315,196.500 146.688 M135.681 155.222 C 135.969 155.451,137.320 156.114,137.243 155.988 C 137.140 155.821,135.933 155.167,135.729 155.167 C 135.664 155.167,135.642 155.191,135.681 155.222 M166.335 171.014 C 167.361 171.701,168.333 172.086,168.333 171.806 C 168.333 171.699,168.290 171.655,168.236 171.708 C 168.183 171.762,167.995 171.662,167.819 171.486 C 167.644 171.310,167.350 171.167,167.167 171.167 C 166.983 171.167,166.833 171.108,166.833 171.035 C 166.833 170.963,166.666 170.892,166.460 170.876 C 166.162 170.854,166.137 170.881,166.335 171.014 " stroke="none" fill="#46a4c8" fill-rule="evenodd"></path><path id="path4" d="M177.066 46.801 C 176.884 46.923,175.552 49.128,172.165 54.917 C 171.038 56.842,169.539 59.392,168.834 60.583 C 168.129 61.775,166.629 64.325,165.501 66.250 C 164.374 68.175,162.983 70.537,162.410 71.500 C 161.838 72.462,160.451 74.825,159.328 76.750 C 158.205 78.675,156.927 80.842,156.487 81.566 L 155.687 82.882 156.284 83.816 C 156.613 84.330,158.205 86.700,159.824 89.083 C 161.443 91.467,163.370 94.317,164.107 95.417 C 164.844 96.517,166.635 99.179,168.087 101.333 C 169.540 103.487,171.999 107.162,173.553 109.500 C 176.235 113.534,176.748 114.194,177.267 114.270 C 177.389 114.288,179.086 114.824,181.036 115.463 C 184.490 116.592,187.509 117.519,189.625 118.100 C 190.198 118.257,190.667 118.438,190.667 118.502 C 190.667 118.615,193.253 119.504,193.915 119.619 C 194.098 119.651,194.943 119.900,195.792 120.172 C 197.734 120.794,197.726 120.794,197.404 120.042 C 197.256 119.698,196.536 117.954,195.803 116.167 C 195.071 114.379,193.700 111.042,192.757 108.750 C 191.814 106.458,190.551 103.383,189.951 101.917 C 189.351 100.450,187.718 96.475,186.321 93.083 C 184.925 89.692,183.429 86.017,182.996 84.917 C 181.910 82.155,179.296 75.773,178.404 73.705 L 177.667 71.993 177.667 59.517 C 177.667 46.767,177.650 46.411,177.066 46.801 M172.284 47.938 C 172.215 48.008,171.991 48.089,171.787 48.119 C 171.235 48.202,169.627 48.602,165.917 49.580 C 164.083 50.063,161.196 50.805,159.500 51.229 C 157.804 51.653,155.029 52.368,153.333 52.817 C 151.637 53.265,149.688 53.760,149.000 53.915 C 148.313 54.070,147.112 54.373,146.333 54.589 C 145.554 54.804,143.492 55.363,141.750 55.830 C 137.775 56.897,138.119 56.766,138.317 57.136 C 138.408 57.306,140.417 60.308,142.783 63.809 C 145.148 67.309,148.546 72.345,150.333 75.001 C 152.121 77.656,153.623 79.829,153.671 79.831 C 153.719 79.832,155.103 77.565,156.747 74.792 C 161.584 66.630,165.799 59.496,167.997 55.750 C 169.127 53.825,170.605 51.322,171.282 50.188 C 172.328 48.437,172.764 47.459,172.284 47.938 M103.000 65.839 C 102.037 66.096,100.688 66.434,100.000 66.590 C 99.313 66.747,97.550 67.206,96.083 67.612 C 94.617 68.017,93.304 68.376,93.167 68.409 C 91.898 68.711,90.114 69.200,89.537 69.404 C 89.147 69.541,88.792 69.656,88.748 69.660 C 88.703 69.664,88.648 69.671,88.625 69.677 C 88.602 69.683,88.358 69.717,88.083 69.754 C 87.311 69.855,87.019 69.926,86.905 70.039 C 86.848 70.097,86.696 70.103,86.567 70.054 C 86.439 70.005,86.333 70.043,86.333 70.139 C 86.333 70.235,86.502 70.280,86.708 70.239 C 86.915 70.197,87.290 70.125,87.542 70.079 L 88.000 69.995 88.000 77.591 C 88.000 82.612,87.944 85.151,87.833 85.083 C 87.742 85.027,87.667 85.060,87.667 85.157 C 87.667 85.254,87.798 85.345,87.958 85.359 C 88.491 85.405,88.582 85.425,88.750 85.529 C 88.842 85.586,89.854 85.945,91.000 86.327 C 92.146 86.709,93.233 87.083,93.417 87.159 C 94.351 87.548,95.363 87.859,95.441 87.781 C 95.523 87.699,96.686 85.073,98.443 81.000 C 98.859 80.037,99.859 77.750,100.666 75.917 C 101.473 74.083,102.433 71.871,102.799 71.000 C 103.165 70.129,103.847 68.565,104.315 67.523 C 105.464 64.969,105.601 65.144,103.000 65.839 M85.500 70.417 C 85.233 70.569,85.177 70.657,85.343 70.661 C 85.486 70.664,85.749 70.557,85.926 70.422 C 86.341 70.109,86.045 70.105,85.500 70.417 M84.093 70.687 C 83.214 70.894,83.076 71.062,83.917 70.904 C 84.283 70.836,84.677 70.779,84.792 70.778 C 84.906 70.778,85.000 70.715,85.000 70.639 C 85.000 70.479,84.976 70.481,84.093 70.687 M83.667 83.802 C 83.667 84.058,84.306 84.379,84.596 84.268 C 84.727 84.218,84.833 84.241,84.833 84.319 C 84.833 84.397,84.978 84.499,85.154 84.545 C 85.379 84.604,85.449 84.560,85.386 84.398 C 85.301 84.176,85.002 84.093,84.525 84.158 C 84.402 84.175,84.158 84.060,83.984 83.902 C 83.809 83.744,83.667 83.699,83.667 83.802 M85.710 84.500 C 85.747 84.637,85.847 84.751,85.931 84.753 C 86.015 84.754,86.184 84.819,86.306 84.896 C 86.437 84.980,86.605 84.961,86.715 84.852 C 86.881 84.685,86.593 84.610,86.060 84.681 C 86.002 84.689,85.884 84.595,85.798 84.473 C 85.673 84.295,85.655 84.301,85.710 84.500 M180.054 123.222 C 178.650 128.165,178.051 130.353,177.788 131.500 C 177.652 132.096,176.931 134.696,176.187 137.278 C 175.442 139.860,174.833 142.097,174.833 142.249 C 174.833 142.504,174.166 144.901,172.537 150.500 C 171.769 153.138,171.736 152.932,172.853 152.495 C 174.053 152.026,174.098 151.966,174.505 150.333 C 175.246 147.362,175.669 145.790,176.794 141.833 C 177.433 139.587,178.033 137.375,178.127 136.917 C 178.221 136.458,178.524 135.296,178.800 134.333 C 179.076 133.371,179.680 131.271,180.142 129.667 C 180.604 128.063,181.100 126.176,181.244 125.475 C 181.389 124.773,181.655 123.768,181.836 123.241 C 182.059 122.594,182.113 122.219,182.001 122.085 C 181.910 121.975,181.892 121.825,181.960 121.750 C 182.028 121.675,181.990 121.667,181.875 121.733 C 181.685 121.843,181.587 121.646,181.651 121.279 C 181.664 121.204,181.606 121.185,181.522 121.237 C 181.437 121.289,181.266 121.076,181.141 120.763 C 180.915 120.195,180.913 120.200,180.054 123.222 M171.762 157.513 C 171.402 157.689,171.012 157.833,170.897 157.833 C 170.586 157.833,168.505 164.444,168.498 165.453 C 168.496 165.827,167.229 170.239,167.002 170.663 C 166.780 171.078,166.789 171.190,167.042 171.140 C 167.373 171.075,168.303 171.635,168.362 171.936 C 168.392 172.086,168.691 171.244,169.026 170.063 C 170.615 164.468,171.661 160.669,171.843 159.833 C 171.953 159.329,172.150 158.593,172.281 158.198 C 172.602 157.232,172.531 157.137,171.762 157.513 " stroke="none" fill="#5acdca" fill-rule="evenodd"></path></g></svg>