<?xml version="1.0" standalone="no"?>
<!DOCTYPE svg PUBLIC "-//W3C//DTD SVG 20010904//EN"
 "http://www.w3.org/TR/2001/REC-SVG-20010904/DTD/svg10.dtd">
<svg version="1.0" xmlns="http://www.w3.org/2000/svg"
 width="1623.000000pt" height="1298.000000pt" viewBox="0 0 1623.000000 1298.000000"
 preserveAspectRatio="xMidYMid meet">
<metadata>
Created by potrace 1.16, written by Peter Selinger 2001-2019
</metadata>
<g transform="translate(0.000000,1298.000000) scale(0.100000,-0.100000)"
fill="#000000" stroke="none">
<path d="M8170 12779 c-108 -43 -93 -19 -940 -1458 -432 -734 -792 -1350 -801
-1370 -9 -20 -90 -162 -181 -316 -2614 -4439 -3413 -5794 -3428 -5810 -9 -11
-287 -480 -618 -1041 -416 -707 -606 -1039 -618 -1080 -45 -156 38 -331 190
-399 66 -30 139 -39 201 -25 48 11 3245 1308 3255 1321 5 5 2240 917 2645
1079 510 203 2242 908 2311 941 45 21 288 122 540 225 253 103 815 332 1249
509 435 178 1029 420 1321 539 292 119 540 218 550 220 49 10 2193 891 2231
917 93 64 138 165 131 297 -5 99 -32 163 -97 225 -36 34 -3086 2113 -3128
2132 -12 6 -348 233 -747 505 -400 272 -859 585 -1020 695 -162 110 -305 210
-318 221 -35 33 -2396 1638 -2448 1664 -66 35 -204 39 -280 9z m1343 -976
c609 -415 1116 -757 1125 -760 9 -4 213 -140 452 -303 239 -163 775 -528 1190
-810 415 -282 766 -523 780 -536 14 -12 671 -462 1460 -999 789 -537 1445
-988 1458 -1002 13 -14 20 -29 15 -33 -4 -4 -528 -78 -1163 -164 -635 -86
-1164 -158 -1176 -161 -20 -4 -21 -8 -11 -55 5 -27 13 -50 17 -50 13 0 2284
310 2315 316 l30 6 -35 -35 c-30 -30 -189 -97 -1100 -468 -586 -238 -1067
-436 -1070 -440 -3 -3 -493 -205 -1090 -449 -597 -243 -1461 -595 -1920 -783
-459 -187 -848 -343 -865 -347 -31 -8 -1868 -757 -2035 -830 -52 -23 -313
-131 -580 -240 -267 -109 -890 -363 -1385 -565 -495 -202 -913 -371 -930 -375
-16 -4 -709 -285 -1540 -624 -1258 -514 -1517 -616 -1550 -614 -39 3 -8 26
1128 823 l1167 820 -55 28 -55 28 -1140 -801 c-626 -440 -1145 -803 -1153
-806 -20 -7 -27 36 -12 79 6 19 277 484 600 1033 324 549 605 1031 625 1069
20 39 670 1146 1445 2460 774 1315 1595 2707 1823 3095 228 388 419 707 423
710 4 3 341 572 749 1265 408 693 748 1266 756 1274 7 8 16 12 19 9 3 -3 30
-479 61 -1059 31 -580 58 -1056 60 -1058 1 -2 25 3 53 10 l50 13 -5 60 c-3 34
-27 491 -54 1016 -27 525 -51 976 -53 1003 l-4 47 36 -21 c20 -12 535 -361
1144 -776z"/>
<path d="M7255 5404 c-99 -69 -186 -132 -193 -139 -12 -10 -9 -20 13 -54 15
-22 30 -41 32 -41 3 0 108 73 235 162 l231 162 -49 17 c-27 10 -58 18 -69 18
-12 1 -102 -56 -200 -125z"/>
</g>
</svg>
